<svg xmlns="http://www.w3.org/2000/svg" width="1280" height="650" viewBox="0 0 1280 650" role="img">
<rect width="1280" height="650" rx="28" fill="#0f172a"/>
<text x="48" y="55" font-family="Arial,sans-serif" font-size="29" font-weight="700" fill="#f8fafc">Federated Learning for Secure Healthcare Analytics</text>
<text x="48" y="88" font-family="Arial,sans-serif" font-size="16" fill="#94a3b8">Distributed architecture: local training, privacy protection, secure aggregation, and iterative global learning.</text>
<rect x="55" y="155" width="225" height="100" rx="18" fill="#111c33" stroke="#334155" stroke-width="2"/><rect x="55" y="155" width="7" height="100" rx="4" fill="#2563eb"/><text x="77" y="189" font-family="Arial,sans-serif" font-size="17" font-weight="700" fill="#f8fafc">Hospital / Client A</text><text x="77" y="217" font-family="Arial,sans-serif" font-size="13.5" fill="#cbd5e1">Local healthcare data</text><text x="77" y="237" font-family="Arial,sans-serif" font-size="13.5" fill="#cbd5e1">Local model training</text><rect x="55" y="325" width="225" height="100" rx="18" fill="#111c33" stroke="#334155" stroke-width="2"/><rect x="55" y="325" width="7" height="100" rx="4" fill="#2563eb"/><text x="77" y="359" font-family="Arial,sans-serif" font-size="17" font-weight="700" fill="#f8fafc">Hospital / Client B</text><text x="77" y="387" font-family="Arial,sans-serif" font-size="13.5" fill="#cbd5e1">Local healthcare data</text><text x="77" y="407" font-family="Arial,sans-serif" font-size="13.5" fill="#cbd5e1">Local model training</text><rect x="55" y="495" width="225" height="100" rx="18" fill="#111c33" stroke="#334155" stroke-width="2"/><rect x="55" y="495" width="7" height="100" rx="4" fill="#2563eb"/><text x="77" y="529" font-family="Arial,sans-serif" font-size="17" font-weight="700" fill="#f8fafc">Hospital / Client K</text><text x="77" y="557" font-family="Arial,sans-serif" font-size="13.5" fill="#cbd5e1">Local healthcare data</text><text x="77" y="577" font-family="Arial,sans-serif" font-size="13.5" fill="#cbd5e1">Local model training</text><rect x="390" y="285" width="245" height="130" rx="18" fill="#111c33" stroke="#334155" stroke-width="2"/><rect x="390" y="285" width="7" height="130" rx="4" fill="#0891b2"/><text x="412" y="319" font-family="Arial,sans-serif" font-size="17" font-weight="700" fill="#f8fafc">Privacy Protection</text><text x="412" y="347" font-family="Arial,sans-serif" font-size="13.5" fill="#cbd5e1">Differential privacy</text><text x="412" y="367" font-family="Arial,sans-serif" font-size="13.5" fill="#cbd5e1">Encrypted model updates</text><text x="412" y="387" font-family="Arial,sans-serif" font-size="13.5" fill="#cbd5e1">Secure aggregation</text><rect x="745" y="285" width="205" height="130" rx="18" fill="#111c33" stroke="#334155" stroke-width="2"/><rect x="745" y="285" width="7" height="130" rx="4" fill="#7c3aed"/><text x="767" y="319" font-family="Arial,sans-serif" font-size="17" font-weight="700" fill="#f8fafc">Server Aggregation</text><text x="767" y="347" font-family="Arial,sans-serif" font-size="13.5" fill="#cbd5e1">Combine protected</text><text x="767" y="367" font-family="Arial,sans-serif" font-size="13.5" fill="#cbd5e1">client updates</text><rect x="1050" y="285" width="180" height="130" rx="18" fill="#111c33" stroke="#334155" stroke-width="2"/><rect x="1050" y="285" width="7" height="130" rx="4" fill="#16a34a"/><text x="1072" y="319" font-family="Arial,sans-serif" font-size="17" font-weight="700" fill="#f8fafc">Global Model</text><text x="1072" y="347" font-family="Arial,sans-serif" font-size="13.5" fill="#cbd5e1">Updated shared</text><text x="1072" y="367" font-family="Arial,sans-serif" font-size="13.5" fill="#cbd5e1">prediction model</text><defs><marker id="f205" viewBox="0 0 10 10" refX="9" refY="5" markerWidth="7" markerHeight="7" orient="auto-start-reverse"><path d="M 0 0 L 10 5 L 0 10 z" fill="#60a5fa"/></marker></defs><path d="M 280 205 C 330 205, 340 350, 390 350" fill="none" stroke="#60a5fa" stroke-width="3.5" marker-end="url(#f205)"/><defs><marker id="f375" viewBox="0 0 10 10" refX="9" refY="5" markerWidth="7" markerHeight="7" orient="auto-start-reverse"><path d="M 0 0 L 10 5 L 0 10 z" fill="#60a5fa"/></marker></defs><path d="M 280 375 C 330 375, 340 350, 390 350" fill="none" stroke="#60a5fa" stroke-width="3.5" marker-end="url(#f375)"/><defs><marker id="f545" viewBox="0 0 10 10" refX="9" refY="5" markerWidth="7" markerHeight="7" orient="auto-start-reverse"><path d="M 0 0 L 10 5 L 0 10 z" fill="#60a5fa"/></marker></defs><path d="M 280 545 C 330 545, 340 350, 390 350" fill="none" stroke="#60a5fa" stroke-width="3.5" marker-end="url(#f545)"/><defs><marker id="arr" viewBox="0 0 10 10" refX="9" refY="5" markerWidth="7" markerHeight="7" orient="auto-start-reverse"><path d="M 0 0 L 10 5 L 0 10 z" fill="#60a5fa"/></marker></defs><line x1="635" y1="350" x2="745" y2="350" stroke="#60a5fa" stroke-width="3.5" marker-end="url(#arr)"/><defs><marker id="arr" viewBox="0 0 10 10" refX="9" refY="5" markerWidth="7" markerHeight="7" orient="auto-start-reverse"><path d="M 0 0 L 10 5 L 0 10 z" fill="#60a5fa"/></marker></defs><line x1="950" y1="350" x2="1050" y2="350" stroke="#60a5fa" stroke-width="3.5" marker-end="url(#arr)"/>






<text x="625" y="530" font-family="Arial,sans-serif" font-size="13" fill="#6ee7b7">
  Global model redistributed for the next training round
</text>
<defs>
  <marker id="feedbackfed13" viewBox="0 0 10 10" refX="9" refY="5"
          markerWidth="7" markerHeight="7" orient="auto-start-reverse">
    <path d="M 0 0 L 10 5 L 0 10 z" fill="#34d399"/>
  </marker>
</defs>
<path d="M 1125 395
         C 1125 500, 1020 565, 900 575
         L 320 575
         C 245 575, 195 565, 135 550"
      fill="none"
      stroke="#34d399"
      stroke-width="3.5"
      marker-end="url(#feedbackfed13)"/>

</svg>